#!OML:ASF G:\JayActor3\Patient Classification 1\Patient 1\Session 5\male.ASF
:FULLY-SPECIFIED
:DEGREES
1135
root -41.45 15.5402 -6.22092 569.83 -91.169 -560.604
lowerback 36.3685 -1.09488 2.68035
upperback 9.8157 -1.66455 -0.66408
thorax -7.26065 -1.24078 -1.42815
lowerneck 3.295 -0.175182 1.06802
upperneck -21.2421 -0.225663 2.19094
head -7.01776 -0.626338 0.57557
rclavicle 1.39149e-014 1.96797e-014
rhumerus -30.3396 2.00194 -86.3158
rradius 41.4517
rwrist -1.33281
rhand -19.7363 -8.94965
rfingers 7.12502
rthumb 6.59438 -38.827
lclavicle 1.39149e-014 1.96797e-014
lhumerus -31.2678 -1.70414 83.7791
lradius 39.5967
lwrist 24.0275
lhand -17.0956 12.1466
lfingers 7.12502
lthumb 9.14307 41.9284
rfemur -53.9535 -6.97739 24.2895
rtibia 88.0928
rfoot 11.972 -14.2231
rtoes -9.97826
lfemur -66.5944 15.4981 -31.2696
ltibia 54.2885
lfoot 22.0573 2.93346
ltoes -26.8479
1136
root -41.5738 15.5338 -6.17926 573.093 -90.9872 -563.871
lowerback 36.3649 -1.07489 2.64842
upperback 9.80976 -1.65336 -0.666271
thorax -7.26526 -1.23654 -1.41777
lowerneck 3.21976 -0.17471 0.959152
upperneck -21.1417 -0.215183 2.31054
head -6.97131 -0.620479 0.630734
rclavicle 2.24627e-014 2.34566e-014
rhumerus -30.3637 2.03785 -86.2642
rradius 41.4284
rwrist -1.34418
rhand -19.7489 -8.97614
rfingers 7.12502
rthumb 6.58225 -38.8538
lclavicle 2.24627e-014 2.34566e-014
lhumerus -31.2583 -1.62522 83.7606
lradius 39.4556
lwrist 24.0019
lhand -17.0835 12.0374
lfingers 7.12502
lthumb 9.15481 41.8187
rfemur -53.496 -6.94991 23.929
rtibia 88.1705
rfoot 12.4472 -13.9527
rtoes -9.44648
lfemur -66.7284 15.6956 -31.3909
ltibia 55.3989
lfoot 21.5336 2.23621
ltoes -27.3251
1137
root -41.6979 15.5246 -6.13757 576.992 -90.8091 -567.777
lowerback 36.3613 -1.05826 2.61006
upperback 9.80733 -1.64999 -0.678776
thorax -7.2666 -1.23582 -1.41207
lowerneck 3.15542 -0.16968 0.867775
upperneck -21.049 -0.196813 2.42698
head -6.92953 -0.612041 0.681438
rclavicle 2.34566e-014 3.61788e-014
rhumerus -30.3852 2.05592 -86.2303
rradius 41.4017
rwrist -1.34466
rhand -19.8015 -9.0004
rfingers 7.12502
rthumb 6.53142 -38.8797
lclavicle 2.34566e-014 3.61788e-014
lhumerus -31.2297 -1.53546 83.7155
lradius 39.3129
lwrist 23.9433
lhand -17.0222 12.0774
lfingers 7.12502
lthumb 9.21393 41.8561
rfemur -53.0432 -6.90561 23.5535
rtibia 88.2673
rfoot 12.9385 -13.6975
rtoes -8.87826
lfemur -66.8767 15.853 -31.4886
ltibia 56.5883
lfoot 20.8671 1.42809
ltoes -28.2052
1138
root -41.8231 15.5134 -6.09597 581.005 -90.6404 -571.809
lowerback 36.3597 -1.05088 2.56572
upperback 9.81201 -1.66224 -0.705035
thorax -7.26189 -1.24231 -1.41202
lowerneck 3.07908 -0.159667 0.785114
upperneck -20.9433 -0.169661 2.54998
head -6.88159 -0.600176 0.73197
rclavicle -1.13307e-014 2.18663e-015
rhumerus -30.4008 2.05337 -86.2178
rradius 41.3668
rwrist -1.33159
rhand -19.8771 -9.01656
rfingers 7.12502
rthumb 6.45848 -38.8981
lclavicle -1.13307e-014 2.18663e-015
lhumerus -31.1871 -1.43526 83.6397
lradius 39.1793
lwrist 23.8542
lhand -16.9693 12.1132
lfingers 7.12502
lthumb 9.26496 41.8896
rfemur -52.5824 -6.85866 23.1546
rtibia 88.3735
rfoot 13.5008 -13.5237
rtoes -8.02239
lfemur -67.0095 15.9485 -31.551
ltibia 57.7533
lfoot 20.1695 0.645444
ltoes -29.2274
1139
root -41.9484 15.5029 -6.05451 585.269 -90.4937 -576.104
lowerback 36.3635 -1.05854 2.53315
upperback 9.82144 -1.69057 -0.744517
thorax -7.25512 -1.25609 -1.42608
lowerneck 3.07234 -0.134949 0.766614
upperneck -20.9186 -0.128116 2.59931
head -6.87269 -0.582305 0.747965
rclavicle -1.61016e-014 -7.95139e-015
rhumerus -30.4123 2.02447 -86.229
rradius 41.3147
rwrist -1.29884
rhand -19.9824 -9.01365
rfingers 7.12502
rthumb 6.35679 -38.8983
lclavicle -1.61016e-014 -7.95139e-015
lhumerus -31.1338 -1.33653 83.5323
lradius 39.063
lwrist 23.7451
lhand -16.9842 12.1018
lfingers 7.12502
lthumb 9.25057 41.8789
rfemur -52.0967 -6.81707 22.7506
rtibia 88.4718
rfoot 14.0514 -13.3599
rtoes -7.14698
lfemur -67.1069 15.9671 -31.5557
ltibia 58.817
lfoot 19.5564 0.139157
ltoes -29.7542
